<svg width="20" height="20" viewBox="0 0 20 20" fill="none" xmlns="http://www.w3.org/2000/svg">
<path d="M19.4041 11.1764H10.6802L16.4902 16.9864C16.7122 17.2084 17.0777 17.2264 17.306 17.0114C18.7288 15.6709 19.7074 13.8639 19.9946 11.8327C20.0438 11.4849 19.7552 11.1764 19.4041 11.1764ZM18.8221 8.7941C18.5192 4.4022 15.0096 0.892645 10.6177 0.589705C10.2824 0.566543 10.0001 0.849263 10.0001 1.18529V9.41175H18.2269C18.5629 9.41175 18.8453 9.12939 18.8221 8.7941ZM8.23537 11.1764V2.45257C8.23537 2.10147 7.92692 1.81286 7.57949 1.86213C3.19824 2.48124 -0.150655 6.30881 0.00522741 10.8959C0.165522 15.607 4.22177 19.4702 8.93501 19.411C10.7879 19.3878 12.5001 18.7908 13.9078 17.7922C14.1982 17.5864 14.2174 17.1588 13.9655 16.907L8.23537 11.1764Z" fill="#303C3A"/>
</svg>
