<svg width="18" height="16" viewBox="0 0 18 16" fill="none" xmlns="http://www.w3.org/2000/svg">
<path d="M0.391442 3.33548L3.08821 0.656847C3.29887 0.447684 3.64058 0.447751 3.85111 0.656847L6.54777 3.33548C6.8873 3.67265 6.64552 4.25001 6.16631 4.25001H4.5486V14.9643C4.5486 15.2602 4.30709 15.5 4.00914 15.5H2.93021C2.63226 15.5 2.39075 15.2602 2.39075 14.9643V4.25001H0.772908C0.292754 4.25001 0.0526262 3.67198 0.391442 3.33548ZM8.32483 2.64287H16.9562C17.2542 2.64287 17.4957 2.40304 17.4957 2.10716V1.03573C17.4957 0.739849 17.2542 0.500017 16.9562 0.500017H8.32483C8.02688 0.500017 7.78537 0.739849 7.78537 1.03573V2.10716C7.78537 2.40304 8.02688 2.64287 8.32483 2.64287ZM7.78537 6.39287V5.32144C7.78537 5.02556 8.02688 4.78573 8.32483 4.78573H14.7984C15.0963 4.78573 15.3378 5.02556 15.3378 5.32144V6.39287C15.3378 6.68875 15.0963 6.92858 14.7984 6.92858H8.32483C8.02688 6.92858 7.78537 6.68875 7.78537 6.39287ZM7.78537 14.9643V13.8929C7.78537 13.597 8.02688 13.3571 8.32483 13.3571H10.4827C10.7806 13.3571 11.0221 13.597 11.0221 13.8929V14.9643C11.0221 15.2602 10.7806 15.5 10.4827 15.5H8.32483C8.02688 15.5 7.78537 15.2602 7.78537 14.9643ZM7.78537 10.6786V9.60715C7.78537 9.31127 8.02688 9.07143 8.32483 9.07143H12.6405C12.9385 9.07143 13.18 9.31127 13.18 9.60715V10.6786C13.18 10.9745 12.9385 11.2143 12.6405 11.2143H8.32483C8.02688 11.2143 7.78537 10.9745 7.78537 10.6786Z" fill="#C5C7CD"/>
</svg>
