<svg width="84" height="84" viewBox="0 0 84 84" fill="none" xmlns="http://www.w3.org/2000/svg">
<path d="M0 65.5V65.75C1.38071 65.75 2.5 66.8693 2.5 68.25V73.5C2.5 74.0281 2.55219 74.5506 2.65367 75.0607C2.78461 75.7189 2.64414 76.3681 2.30966 76.8925C2.91698 77.0268 3.47538 77.3866 3.84822 77.9446C4.1372 78.3771 4.46974 78.7835 4.84315 79.1569C5.21655 79.5303 5.6229 79.8628 6.05539 80.1518C6.6134 80.5246 6.97315 81.083 7.10745 81.6903C7.63186 81.3559 8.28109 81.2154 8.9393 81.3463C9.44945 81.4478 9.97193 81.5 10.5 81.5H15.75C17.1307 81.5 18.25 82.6193 18.25 84H23.75C23.75 82.6193 24.8693 81.5 26.25 81.5H36.75C38.1307 81.5 39.25 82.6193 39.25 84H44.75C44.75 82.6193 45.8693 81.5 47.25 81.5H57.75C59.1307 81.5 60.25 82.6193 60.25 84H65.75C65.75 82.6193 66.8693 81.5 68.25 81.5H73.5C74.0281 81.5 74.5506 81.4478 75.0607 81.3463C75.7189 81.2154 76.3681 81.3559 76.8925 81.6903C77.0268 81.083 77.3866 80.5246 77.9446 80.1518C78.3771 79.8628 78.7835 79.5303 79.1569 79.1569C79.5303 78.7835 79.8628 78.3771 80.1518 77.9446C80.5246 77.3866 81.083 77.0268 81.6903 76.8925C81.3559 76.3681 81.2154 75.7189 81.3463 75.0607C81.4478 74.5506 81.5 74.0281 81.5 73.5V68.25C81.5 66.8693 82.6193 65.75 84 65.75V60.25C82.6193 60.25 81.5 59.1307 81.5 57.75V55H80.0625C78.6818 55 77.5625 53.8807 77.5625 52.5H74.6875C74.6875 53.8807 73.5682 55 72.1875 55H64.3125C62.9318 55 61.8125 53.8807 61.8125 52.5H58.9375C58.9375 53.8807 57.8182 55 56.4375 55H56.2506C56.1297 55.2679 55.9592 55.5189 55.7391 55.7391L58.2227 58.2227C59.199 57.2464 60.7819 57.2464 61.7582 58.2227L64.7678 61.2322C65.4828 61.9472 65.6966 63.0225 65.3097 63.9567C64.9227 64.8909 64.0112 65.5 63 65.5H57.75C56.3693 65.5 55.25 64.3807 55.25 63H49.75C49.75 64.3807 48.6307 65.5 47.25 65.5H36.75C35.3693 65.5 34.25 64.3807 34.25 63H28.75C28.75 64.3807 27.6307 65.5 26.25 65.5H15.75C14.3693 65.5 13.25 64.3807 13.25 63H7.75C7.75 64.3807 6.63071 65.5 5.25 65.5H0ZM4.77733 58.2227L7.26092 55.7391C6.28461 54.7628 6.28461 53.1799 7.26092 52.2035L13.28 46.1844C14.2564 45.2081 15.8393 45.2081 16.8156 46.1844L19.2992 43.7008C18.3229 42.7245 18.3229 41.1416 19.2992 40.1653L22.3087 37.1557L22.309 37.1555C22.9155 36.5492 23.5758 36.0088 24.2788 35.5393C25.1288 34.9715 26.2003 34.9934 27.0107 35.5089C27.2194 34.5714 27.9617 33.7983 28.9643 33.5989C29.7934 33.434 30.6424 33.3492 31.5 33.3492C32.3576 33.3492 33.2066 33.434 34.0357 33.5989C35.0383 33.7983 35.7806 34.5714 35.9893 35.5089C36.7997 34.9934 37.8712 34.9715 38.7212 35.5393C39.4242 36.0088 40.0845 36.5492 40.691 37.1555L40.6913 37.1557L43.7008 40.1653C44.6771 41.1416 44.6771 42.7245 43.7008 43.7008L46.1844 46.1844C47.1607 45.2081 48.7436 45.2081 49.72 46.1844L52.5 48.9645L52.8139 48.6506C53.7902 47.6743 55.3731 47.6743 56.3494 48.6506L56.9771 48.0229C56.0008 47.0466 56.0008 45.4637 56.9771 44.4874L59.0587 42.4057L59.059 42.4055C59.6655 41.7992 60.3258 41.2588 61.0288 40.7893C61.8788 40.2215 62.9503 40.2434 63.7607 40.7589C63.9694 39.8214 64.7117 39.0483 65.7143 38.8489C66.5434 38.684 67.3924 38.5992 68.25 38.5992C69.1076 38.5992 69.9566 38.684 70.7857 38.8489C71.7883 39.0483 72.5306 39.8214 72.7393 40.7589C73.5497 40.2434 74.6212 40.2215 75.4712 40.7893C76.1742 41.2588 76.8345 41.7992 77.441 42.4055L77.4413 42.4057L79.5229 44.4874C80.4992 45.4637 80.4992 47.0466 79.5229 48.0229L80.1506 48.6506C80.532 48.2693 81.0059 48.0369 81.5 47.9534V47.25C81.5 45.8693 82.6193 44.75 84 44.75V39.25C82.6193 39.25 81.5 38.1307 81.5 36.75V26.25C81.5 24.8693 82.6193 23.75 84 23.75V18.25C82.6193 18.25 81.5 17.1307 81.5 15.75V10.5C81.5 9.97193 81.4478 9.44945 81.3463 8.9393C81.2154 8.28109 81.3559 7.63186 81.6903 7.10745C81.083 6.97315 80.5246 6.6134 80.1518 6.05539C79.8628 5.6229 79.5303 5.21655 79.1569 4.84314C78.7835 4.46974 78.3771 4.1372 77.9446 3.84822C77.3866 3.47538 77.0268 2.91698 76.8925 2.30966C76.3681 2.64414 75.7189 2.78461 75.0607 2.65367C74.5506 2.55219 74.0281 2.5 73.5 2.5H68.25C66.8693 2.5 65.75 1.38071 65.75 0H60.25C60.25 1.38071 59.1307 2.5 57.75 2.5H47.25C45.8693 2.5 44.75 1.38071 44.75 0H39.25C39.25 1.38071 38.1307 2.5 36.75 2.5H26.25C24.8693 2.5 23.75 1.38071 23.75 0H18.25C18.25 1.38071 17.1307 2.5 15.75 2.5H10.5C9.97193 2.5 9.44945 2.55219 8.9393 2.65367C8.28109 2.78461 7.63186 2.64414 7.10745 2.30966C6.97315 2.91698 6.6134 3.47538 6.05539 3.84822C5.6229 4.1372 5.21655 4.46974 4.84315 4.84315C4.46974 5.21655 4.1372 5.6229 3.84822 6.05539C3.47538 6.6134 2.91698 6.97315 2.30966 7.10745C2.64414 7.63186 2.78461 8.28109 2.65367 8.9393C2.55219 9.44945 2.5 9.97193 2.5 10.5V15.75C2.5 17.1307 1.38071 18.25 0 18.25V23.75C1.38071 23.75 2.5 24.8693 2.5 26.25V36.75C2.5 38.1307 1.38071 39.25 0 39.25V44.75C1.38071 44.75 2.5 45.8693 2.5 47.25V57.5426C3.29693 57.3775 4.15885 57.6042 4.77733 58.2227Z" stroke="#B5B5B5" stroke-width="5" stroke-linecap="round" stroke-linejoin="round" stroke-dasharray="10 10"/>
</svg>
