<svg xmlns="http://www.w3.org/2000/svg" xmlns:xlink="http://www.w3.org/1999/xlink" width="118.567" height="40.26" viewBox="0 0 118.567 40.26">
  <defs>
    <filter id="Subtraction_1" x="17.903" y="9.559" width="32.01" height="30.701" filterUnits="userSpaceOnUse">
      <feOffset dy="3" input="SourceAlpha"/>
      <feGaussianBlur stdDeviation="3" result="blur"/>
      <feFlood flood-opacity="0.161"/>
      <feComposite operator="in" in2="blur"/>
      <feComposite in="SourceGraphic"/>
    </filter>
    <filter id="Subtraction_2" x="0" y="9.559" width="32.01" height="30.701" filterUnits="userSpaceOnUse">
      <feOffset dy="3" input="SourceAlpha"/>
      <feGaussianBlur stdDeviation="3" result="blur-2"/>
      <feFlood flood-opacity="0.161"/>
      <feComposite operator="in" in2="blur-2"/>
      <feComposite in="SourceGraphic"/>
    </filter>
    <filter id="MEMO" x="53.567" y="6.227" width="65" height="19" filterUnits="userSpaceOnUse">
      <feOffset dy="3" input="SourceAlpha"/>
      <feGaussianBlur stdDeviation="3" result="blur-3"/>
      <feFlood flood-opacity="0.161" result="color"/>
      <feComposite operator="out" in="SourceGraphic" in2="blur-3"/>
      <feComposite operator="in" in="color"/>
      <feComposite operator="in" in2="SourceGraphic"/>
    </filter>
  </defs>
  <g id="Group_161" data-name="Group 161" transform="translate(-130.048 -40)">
    <g id="Group_7" data-name="Group 7" transform="translate(139 40)">
      <g transform="matrix(1, 0, 0, 1, -8.95, 0)" filter="url(#Subtraction_1)">
        <path id="Subtraction_1-2" data-name="Subtraction 1" d="M14.01,0h0L9.54,4.044,0,12.7H14.01V0h0Z" transform="translate(26.9 15.56)" fill="#303c3a"/>
      </g>
      <g transform="matrix(1, 0, 0, 1, -8.95, 0)" filter="url(#Subtraction_2)">
        <path id="Subtraction_2-2" data-name="Subtraction 2" d="M14.01,12.7h0L9.54,8.657,0,0H14.01V12.7h0Z" transform="translate(23.01 28.26) rotate(180)" fill="#303c3a"/>
      </g>
      <path id="Subtraction_5" data-name="Subtraction 5" d="M16.032,26.665h0L0,12.23V0L23.034,20.417l-7,6.248Z" transform="translate(0 0.02)" fill="#303c3a"/>
      <path id="Subtraction_7" data-name="Subtraction 7" d="M6.848,18.819h0l-.887-.791L0,12.71,13.928,0V12.5Z" transform="translate(17.983)" fill="#303c3a"/>
    </g>
    <g data-type="innerShadowGroup">
      <text id="MEMO-2" data-name="MEMO" transform="translate(184.615 60.227)" fill="#fff" font-size="17" font-family="GaleyRounded-ExtraLight, Galey Rounded" font-weight="200" letter-spacing="0.194em"><tspan x="0" y="0">MEMO</tspan></text>
      <g transform="matrix(1, 0, 0, 1, 130.05, 40)" filter="url(#MEMO)">
        <text id="MEMO-3" data-name="MEMO" transform="translate(54.57 20.23)" fill="#fff" font-size="17" font-family="GaleyRounded-ExtraLight, Galey Rounded" font-weight="200" letter-spacing="0.194em"><tspan x="0" y="0">MEMO</tspan></text>
      </g>
      <text id="MEMO-4" data-name="MEMO" transform="translate(184.615 60.227)" stroke="#303c3a" stroke-width="1" font-size="17" font-family="GaleyRounded-ExtraLight, Galey Rounded" font-weight="200" letter-spacing="0.194em" fill="none"><tspan x="0" y="0">MEMO</tspan></text>
    </g>
  </g>
</svg>
