<svg xmlns="http://www.w3.org/2000/svg" xmlns:xlink="http://www.w3.org/1999/xlink" width="192.329" height="151.396" viewBox="0 0 192.329 151.396">
  <defs>
    <filter id="Union_11" x="0" y="0" width="192.329" height="151.396" filterUnits="userSpaceOnUse">
      <feOffset dy="3" input="SourceAlpha"/>
      <feGaussianBlur stdDeviation="3" result="blur"/>
      <feFlood flood-opacity="0.322"/>
      <feComposite operator="in" in2="blur"/>
      <feComposite in="SourceGraphic"/>
    </filter>
  </defs>
  <g transform="matrix(1, 0, 0, 1, 0, 0)" filter="url(#Union_11)">
    <path id="Union_11-2" data-name="Union 11" d="M59.428,111.491A41.7,41.7,0,0,1,42.679,97.137c-11.59-.7-22.349-4.8-30.294-11.53C4.4,78.842,0,70.024,0,60.779Q0,59.637.089,58.5,0,57.363,0,56.221c0-9.245,4.4-18.062,12.385-24.828,7.946-6.73,18.7-10.825,30.294-11.53A41.7,41.7,0,0,1,59.428,5.509a57.112,57.112,0,0,1,49.284.162,41.3,41.3,0,0,1,16.77,14.738,53.985,53.985,0,0,1,14.875,4.46,45.283,45.283,0,0,1,11.893,7.993,35.51,35.51,0,0,1,7.887,10.719,29.573,29.573,0,0,1,2.856,12.639q0,1.142-.089,2.279.089,1.137.089,2.279a29.573,29.573,0,0,1-2.856,12.639,35.521,35.521,0,0,1-7.887,10.719,45.3,45.3,0,0,1-11.893,7.993,53.985,53.985,0,0,1-14.875,4.46,41.3,41.3,0,0,1-16.77,14.738,57.112,57.112,0,0,1-49.284.162Z" transform="matrix(0.99, -0.1, 0.1, 0.99, 9, 23.04)" fill="#fff"/>
  </g>
</svg>
